<svg width="59" height="78" viewBox="0 0 59 78" fill="none" xmlns="http://www.w3.org/2000/svg">
<g filter="url(#filter0_d_14_25)">
<path d="M17.6377 54.2617L14.958 62.3486C14.2881 64.3903 13.1237 66.097 11.4648 67.4688C9.80599 68.8086 7.93978 69.4785 5.86621 69.4785C5.35579 69.4785 4.92513 69.335 4.57422 69.0479C4.25521 68.7926 4.0957 68.4098 4.0957 67.8994C4.0957 67.708 4.15951 67.4209 4.28711 67.0381L8.88086 53.8789C9.10417 53.209 9.34342 52.6986 9.59863 52.3477C9.85384 51.9648 10.2048 51.6937 10.6514 51.5342C11.1299 51.3747 11.5446 51.279 11.8955 51.2471C12.2783 51.2152 12.9163 51.1992 13.8096 51.1992C14.5433 51.1992 15.0856 51.2152 15.4365 51.2471C15.7874 51.2471 16.1862 51.2949 16.6328 51.3906C17.1113 51.4863 17.4463 51.6618 17.6377 51.917C17.8291 52.1403 17.9248 52.4593 17.9248 52.874C17.9248 53.1611 17.8291 53.6237 17.6377 54.2617ZM33.3809 2.43848L53.7656 61.7266C53.9889 62.7474 54.1006 63.3216 54.1006 63.4492C54.1006 64.821 53.3031 66.1768 51.708 67.5166C50.113 68.8245 48.7093 69.4785 47.4971 69.4785C46.4443 69.4785 45.6309 68.665 45.0566 67.0381L25.1504 8.94629C24.8314 7.51074 24.6719 6.74512 24.6719 6.64941C24.6719 5.24577 25.5492 3.85807 27.3037 2.48633C29.0902 1.08268 30.4619 0.380859 31.4189 0.380859C31.9613 0.380859 32.3441 0.524414 32.5674 0.811523C32.8226 1.06673 33.0938 1.60905 33.3809 2.43848ZM32.5195 48.3281H13.0918C11.8796 48.3281 11.2734 47.8018 11.2734 46.749C11.2734 46.4619 11.3372 46.1429 11.4648 45.792L21.2744 16.459C21.721 15.2148 22.2314 14.5928 22.8057 14.5928C23.3161 14.5928 23.7627 14.9118 24.1455 15.5498C24.5283 16.1559 24.943 17.1449 25.3896 18.5166C26.2191 21.1006 26.6338 23.0306 26.6338 24.3066C26.6338 25.1999 26.4743 26.141 26.1553 27.1299L22.4229 38.5186C22.359 38.6781 22.3271 38.9014 22.3271 39.1885C22.3271 40.0498 22.8216 40.4805 23.8105 40.4805H28.7871C30.4141 40.4805 31.5146 40.5602 32.0889 40.7197C32.6631 40.8792 33.1257 41.3258 33.4766 42.0596C33.7956 42.6976 34.0508 43.527 34.2422 44.5479C34.4655 45.5368 34.5771 46.2705 34.5771 46.749C34.5771 47.8018 33.8913 48.3281 32.5195 48.3281Z" fill="url(#paint0_linear_14_25)" shape-rendering="crispEdges"/>
<path d="M17.6377 54.2617L18.5869 54.5763L18.5914 54.5627L18.5955 54.5491L17.6377 54.2617ZM14.958 62.3486L14.0088 62.0341L14.0079 62.0369L14.958 62.3486ZM11.4648 67.4688L12.0932 68.2467L12.1021 68.2394L11.4648 67.4688ZM4.57422 69.0479L5.20749 68.2738L5.19891 68.267L4.57422 69.0479ZM4.28711 67.0381L3.34289 66.7085L3.33843 66.7219L4.28711 67.0381ZM8.88086 53.8789L9.82508 54.2085L9.82954 54.1951L8.88086 53.8789ZM9.59863 52.3477L10.4074 52.9358L10.4194 52.9193L10.4307 52.9024L9.59863 52.3477ZM10.6514 51.5342L10.3351 50.5855L10.325 50.5889L10.315 50.5924L10.6514 51.5342ZM11.8955 51.2471L11.8125 50.2505L11.805 50.2512L11.8955 51.2471ZM15.4365 51.2471L15.346 52.243L15.3912 52.2471H15.4365V51.2471ZM16.6328 51.3906L16.4233 52.3685L16.4367 52.3712L16.6328 51.3906ZM17.6377 51.917L16.8377 52.517L16.8572 52.5431L16.8784 52.5678L17.6377 51.917ZM33.3809 2.43848L34.3265 2.11333L34.3258 2.11137L33.3809 2.43848ZM53.7656 61.7266L54.7425 61.5129L54.7301 61.4562L54.7113 61.4014L53.7656 61.7266ZM51.708 67.5166L52.3421 68.2899L52.3512 68.2823L51.708 67.5166ZM45.0566 67.0381L44.1106 67.3623L44.1137 67.3709L45.0566 67.0381ZM25.1504 8.94629L24.1742 9.16322L24.1863 9.21768L24.2044 9.27045L25.1504 8.94629ZM27.3037 2.48633L27.9196 3.27414L27.9215 3.27265L27.3037 2.48633ZM32.5674 0.811523L31.778 1.42546L31.8163 1.47461L31.8603 1.51863L32.5674 0.811523ZM11.4648 45.792L12.4046 46.1337L12.4091 46.1215L12.4132 46.1091L11.4648 45.792ZM21.2744 16.459L20.3332 16.1211L20.3295 16.1314L20.326 16.1418L21.2744 16.459ZM24.1455 15.5498L23.288 16.0643L23.2939 16.0741L23.3 16.0838L24.1455 15.5498ZM25.3896 18.5166L26.3418 18.211L26.3405 18.207L25.3896 18.5166ZM26.1553 27.1299L27.1056 27.4413L27.107 27.4369L26.1553 27.1299ZM22.4229 38.5186L23.3513 38.8899L23.3632 38.8603L23.3731 38.83L22.4229 38.5186ZM33.4766 42.0596L32.5744 42.491L32.5782 42.4989L32.5821 42.5068L33.4766 42.0596ZM34.2422 44.5479L33.2593 44.7321L33.2627 44.7502L33.2667 44.7681L34.2422 44.5479ZM16.6885 53.9472L14.0088 62.0341L15.9073 62.6632L18.5869 54.5763L16.6885 53.9472ZM14.0079 62.0369C13.3969 63.8988 12.3412 65.4465 10.8276 66.6981L12.1021 68.2394C13.9062 66.7475 15.1793 64.8818 15.9082 62.6604L14.0079 62.0369ZM10.8365 66.6908C9.35007 67.8914 7.70417 68.4785 5.86621 68.4785V70.4785C8.17539 70.4785 10.2619 69.7258 12.0932 68.2467L10.8365 66.6908ZM5.86621 68.4785C5.55586 68.4785 5.35726 68.3965 5.20746 68.2739L3.94098 69.8218C4.493 70.2735 5.15573 70.4785 5.86621 70.4785V68.4785ZM5.19891 68.267C5.17518 68.248 5.0957 68.1891 5.0957 67.8994H3.0957C3.0957 68.6305 3.33523 69.3373 3.94952 69.8287L5.19891 68.267ZM5.0957 67.8994C5.0957 67.9045 5.0962 67.8634 5.11974 67.7575C5.14203 67.6572 5.17918 67.5242 5.23579 67.3543L3.33843 66.7219C3.2059 67.1194 3.0957 67.5364 3.0957 67.8994H5.0957ZM5.23124 67.3677L9.82499 54.2085L7.93673 53.5493L3.34298 66.7085L5.23124 67.3677ZM9.82954 54.1951C10.0381 53.5696 10.2383 53.1683 10.4074 52.9358L8.7899 51.7595C8.44856 52.2288 8.17028 52.8484 7.93218 53.5627L9.82954 54.1951ZM10.4307 52.9024C10.5627 52.7043 10.737 52.5655 10.9877 52.4759L10.315 50.5924C9.67254 50.8219 9.14499 51.2254 8.76658 51.793L10.4307 52.9024ZM10.9676 52.4829C11.4015 52.3382 11.737 52.2656 11.986 52.243L11.805 50.2512C11.3522 50.2923 10.8583 50.4111 10.3351 50.5855L10.9676 52.4829ZM11.9786 52.2436C12.3161 52.2155 12.9175 52.1992 13.8096 52.1992V50.1992C12.9152 50.1992 12.2405 50.2149 11.8125 50.2505L11.9786 52.2436ZM13.8096 52.1992C14.5381 52.1992 15.0426 52.2154 15.346 52.243L15.5271 50.2512C15.1286 50.215 14.5485 50.1992 13.8096 50.1992V52.1992ZM15.4365 52.2471C15.6996 52.2471 16.0261 52.2833 16.4233 52.3684L16.8423 50.4128C16.3463 50.3065 15.8753 50.2471 15.4365 50.2471V52.2471ZM16.4367 52.3712C16.7972 52.4433 16.8551 52.5402 16.8377 52.517L18.4377 51.317C18.0375 50.7834 17.4254 50.5293 16.8289 50.41L16.4367 52.3712ZM16.8784 52.5678C16.8613 52.5478 16.9248 52.6011 16.9248 52.874H18.9248C18.9248 52.3175 18.7969 51.7328 18.397 51.2662L16.8784 52.5678ZM16.9248 52.874C16.9248 53.0009 16.8703 53.3394 16.6799 53.9744L18.5955 54.5491C18.7879 53.908 18.9248 53.3214 18.9248 52.874H16.9248ZM32.4352 2.76362L52.82 62.0517L54.7113 61.4014L34.3265 2.11333L32.4352 2.76362ZM52.7887 61.9403C52.8998 62.448 52.9816 62.8379 53.0352 63.1137C53.0622 63.2522 53.0807 63.3553 53.0921 63.4269C53.1074 63.5235 53.1006 63.508 53.1006 63.4492H55.1006C55.1006 63.3266 55.0798 63.1916 55.0672 63.1127C55.0507 63.0088 55.0274 62.8806 54.9985 62.732C54.9404 62.4335 54.8548 62.026 54.7425 61.5129L52.7887 61.9403ZM53.1006 63.4492C53.1006 64.3995 52.5523 65.5014 51.0648 66.7509L52.3512 68.2823C54.0538 66.8521 55.1006 65.2424 55.1006 63.4492H53.1006ZM51.0739 66.7433C49.5433 67.9984 48.3641 68.4785 47.4971 68.4785V70.4785C49.0545 70.4785 50.6826 69.6506 52.3421 68.2899L51.0739 66.7433ZM47.4971 68.4785C47.1109 68.4785 46.5355 68.2237 45.9996 66.7053L44.1137 67.3709C44.7262 69.1064 45.7777 70.4785 47.4971 70.4785V68.4785ZM46.0026 66.7139L26.0964 8.62212L24.2044 9.27045L44.1106 67.3623L46.0026 66.7139ZM26.1266 8.72936C25.9674 8.01286 25.8489 7.46769 25.7705 7.09146C25.7311 6.90264 25.703 6.76154 25.6851 6.66471C25.676 6.61573 25.6707 6.58438 25.6681 6.5669C25.6618 6.52566 25.6719 6.57498 25.6719 6.64941H23.6719C23.6719 6.74778 23.6869 6.84196 23.6906 6.86651C23.698 6.91482 23.7076 6.9702 23.7185 7.02889C23.7404 7.1474 23.7721 7.30537 23.8125 7.49936C23.8936 7.88875 24.0144 8.44417 24.1742 9.16322L26.1266 8.72936ZM25.6719 6.64941C25.6719 5.69807 26.2645 4.56812 27.9196 3.27414L26.6878 1.69852C24.8338 3.14802 23.6719 4.79346 23.6719 6.64941H25.6719ZM27.9215 3.27265C28.7855 2.59378 29.5193 2.10881 30.1278 1.79747C30.7494 1.47947 31.1669 1.38086 31.4189 1.38086V-0.619141C30.7139 -0.619141 29.9671 -0.366841 29.2169 0.0169784C28.4537 0.407465 27.6083 0.975233 26.6859 1.70001L27.9215 3.27265ZM31.4189 1.38086C31.6071 1.38086 31.7126 1.40644 31.7617 1.42485C31.8021 1.44 31.7935 1.44533 31.778 1.42546L33.3567 0.197583C32.8651 -0.434484 32.1134 -0.619141 31.4189 -0.619141V1.38086ZM31.8603 1.51863C31.8776 1.53592 31.9522 1.62585 32.0677 1.85688C32.1774 2.07618 32.3008 2.37551 32.4359 2.76559L34.3258 2.11137C34.1738 1.67202 34.0181 1.28547 33.8566 0.962454C33.7009 0.651165 33.5124 0.342332 33.2745 0.104417L31.8603 1.51863ZM32.5195 47.3281H13.0918V49.3281H32.5195V47.3281ZM13.0918 47.3281C12.6079 47.3281 12.4318 47.22 12.3837 47.1783C12.3626 47.16 12.2734 47.0816 12.2734 46.749H10.2734C10.2734 47.4692 10.4873 48.1803 11.0723 48.6884C11.6304 49.173 12.3634 49.3281 13.0918 49.3281V47.3281ZM12.2734 46.749C12.2734 46.6076 12.3055 46.4063 12.4046 46.1337L10.5251 45.4502C10.369 45.8795 10.2734 46.3162 10.2734 46.749H12.2734ZM12.4132 46.1091L22.2228 16.7761L20.326 16.1418L10.5165 45.4748L12.4132 46.1091ZM22.2156 16.7968C22.4218 16.2225 22.6143 15.8776 22.7653 15.6936C22.9104 15.5167 22.9245 15.5928 22.8057 15.5928V13.5928C22.1126 13.5928 21.5844 13.9798 21.2191 14.425C20.8596 14.8631 20.5736 15.4514 20.3332 16.1211L22.2156 16.7968ZM22.8057 15.5928C22.8191 15.5928 22.9956 15.5769 23.288 16.0643L25.003 15.0353C24.5298 14.2467 23.8131 13.5928 22.8057 13.5928V15.5928ZM23.3 16.0838C23.6135 16.5801 23.9975 17.4707 24.4388 18.8262L26.3405 18.207C25.8886 16.819 25.4432 15.7317 24.991 15.0158L23.3 16.0838ZM24.4375 18.8222C25.2626 21.3929 25.6338 23.1967 25.6338 24.3066H27.6338C27.6338 22.8645 27.1755 20.8083 26.3418 18.211L24.4375 18.8222ZM25.6338 24.3066C25.6338 25.0802 25.4957 25.9173 25.2036 26.8229L27.107 27.4369C27.4529 26.3646 27.6338 25.3195 27.6338 24.3066H25.6338ZM25.205 26.8185L21.4726 38.2071L23.3731 38.83L27.1055 27.4413L25.205 26.8185ZM21.4944 38.1472C21.362 38.4781 21.3271 38.848 21.3271 39.1885H23.3271C23.3271 39.0802 23.3333 39.0013 23.341 38.9471C23.349 38.8912 23.3565 38.8769 23.3513 38.8899L21.4944 38.1472ZM21.3271 39.1885C21.3271 39.812 21.5125 40.4511 22.0412 40.9116C22.5435 41.349 23.1932 41.4805 23.8105 41.4805V39.4805C23.4389 39.4805 23.347 39.3966 23.3548 39.4034C23.3614 39.4092 23.3604 39.4135 23.3538 39.3963C23.3449 39.3731 23.3271 39.3105 23.3271 39.1885H21.3271ZM23.8105 41.4805H28.7871V39.4805H23.8105V41.4805ZM28.7871 41.4805C30.4282 41.4805 31.397 41.5654 31.8212 41.6832L32.3565 39.7562C31.6323 39.555 30.3999 39.4805 28.7871 39.4805V41.4805ZM31.8212 41.6832C32.0258 41.7401 32.3006 41.9184 32.5744 42.491L34.3787 41.6281C33.9507 40.7333 33.3003 40.0184 32.3565 39.7562L31.8212 41.6832ZM32.5821 42.5068C32.8454 43.0333 33.078 43.765 33.2593 44.7321L35.2251 44.3636C35.0236 43.289 34.7458 42.3619 34.371 41.6124L32.5821 42.5068ZM33.2667 44.7681C33.4877 45.7464 33.5771 46.3886 33.5771 46.749H35.5771C35.5771 46.1524 35.4433 45.3271 35.2176 44.3276L33.2667 44.7681ZM33.5771 46.749C33.5771 47.0399 33.496 47.1077 33.4539 47.14C33.3617 47.2108 33.1056 47.3281 32.5195 47.3281V49.3281C33.3052 49.3281 34.0779 49.1822 34.6716 48.7267C35.3153 48.2326 35.5771 47.5109 35.5771 46.749H33.5771Z" fill="#9E7D79" fill-opacity="0.59"/>
</g>
<defs>
<filter id="filter0_d_14_25" x="0.0957031" y="0.380859" width="58.0049" height="77.0977" filterUnits="userSpaceOnUse" color-interpolation-filters="sRGB">
<feFlood flood-opacity="0" result="BackgroundImageFix"/>
<feColorMatrix in="SourceAlpha" type="matrix" values="0 0 0 0 0 0 0 0 0 0 0 0 0 0 0 0 0 0 127 0" result="hardAlpha"/>
<feOffset dy="4"/>
<feGaussianBlur stdDeviation="2"/>
<feComposite in2="hardAlpha" operator="out"/>
<feColorMatrix type="matrix" values="0 0 0 0 0 0 0 0 0 0 0 0 0 0 0 0 0 0 0.25 0"/>
<feBlend mode="normal" in2="BackgroundImageFix" result="effect1_dropShadow_14_25"/>
<feBlend mode="normal" in="SourceGraphic" in2="effect1_dropShadow_14_25" result="shape"/>
</filter>
<linearGradient id="paint0_linear_14_25" x1="28.5" y1="-15" x2="28.5" y2="69" gradientUnits="userSpaceOnUse">
<stop stop-color="#F25DF5"/>
<stop offset="0.807292" stop-color="white" stop-opacity="0.96875"/>
<stop offset="1" stop-color="white" stop-opacity="0"/>
</linearGradient>
</defs>
</svg>
